# xmcd CD database file
#
# Track frame offsets:
#	150
#	24572
#	42758
#	61795
#	85093
#	110571
#	128899
#	147791
#	170072
#	206713
#	229285
#	249095
#	272457
#	291381
#	316998
#
# Disc length: 4489 seconds
#
# Revision: 1
# Processed by: cddbd v1.5.2PL0 Copyright (c) Steve Scherf et al.
# Submitted via: CDex 1.81
#
DISCID=d311870f
DTITLE=European Jazz Trio - Platinum Best, Classics And Pops [Disc 2]
DYEAR=2017
DGENRE=Jazz
TTITLE0=Don't Know Why
TTITLE1=Mas Que Nada
TTITLE2=Tears In Heaven
TTITLE3=Nuovo Cinema Paradiso
TTITLE4=Maria (West Side Story)
TTITLE5=Superstar
TTITLE6=Blackbird
TTITLE7=Sailing
TTITLE8=Europa
TTITLE9=La Bamba
TTITLE10=Kiss of Fire
TTITLE11=Chega De Saudade
TTITLE12=Both Sides Now
TTITLE13=Dancing Queen
TTITLE14=Honesty
EXTD=YEAR: 2017
EXTT0=
EXTT1=
EXTT2=
EXTT3=
EXTT4=
EXTT5=
EXTT6=
EXTT7=
EXTT8=
EXTT9=
EXTT10=
EXTT11=
EXTT12=
EXTT13=
EXTT14=
PLAYORDER=
